<svg width="128" height="21" viewBox="0 0 128 21" fill="none" xmlns="http://www.w3.org/2000/svg">
<path d="M91.6306 20.3455H94.8055C94.8755 20.3443 94.9446 20.3293 95.0088 20.3013C95.0731 20.2734 95.1312 20.2331 95.1798 20.1827C95.2284 20.1323 95.2667 20.0729 95.2923 20.0077C95.318 19.9425 95.3306 19.8729 95.3293 19.8029V10.5186C95.3306 10.4485 95.318 10.3789 95.2923 10.3138C95.2667 10.2486 95.2284 10.1891 95.1798 10.1387C95.1312 10.0884 95.0731 10.048 95.0088 10.0201C94.9446 9.99219 94.8755 9.97717 94.8055 9.97595H91.6306C91.5606 9.97717 91.4915 9.99219 91.4272 10.0201C91.363 10.048 91.3049 10.0884 91.2563 10.1387C91.2076 10.1891 91.1694 10.2486 91.1437 10.3138C91.1181 10.3789 91.1055 10.4485 91.1068 10.5186V19.8066C91.1053 19.9474 91.1595 20.0831 91.2576 20.184C91.3558 20.285 91.4898 20.343 91.6306 20.3455Z" fill="#F08319"/>
<path d="M106.878 5.32529V19.6883C106.878 19.8377 106.819 19.981 106.713 20.0866C106.607 20.1922 106.464 20.2516 106.315 20.2516H102.513C102.363 20.2516 102.22 20.1922 102.114 20.0866C102.009 19.981 101.949 19.8377 101.949 19.6883V5.32529C101.949 5.17591 101.89 5.03264 101.784 4.92701C101.679 4.82138 101.536 4.76204 101.386 4.76204H98.429C98.2797 4.76204 98.1364 4.70269 98.0308 4.59706C97.9251 4.49142 97.8658 4.34817 97.8658 4.19878V0.819238C97.8658 0.669853 97.9251 0.526589 98.0308 0.420958C98.1364 0.315327 98.2797 0.255981 98.429 0.255981H111.525C111.674 0.255981 111.817 0.315327 111.923 0.420958C112.029 0.526589 112.088 0.669853 112.088 0.819238V4.19878C112.088 4.34817 112.029 4.49142 111.923 4.59706C111.817 4.70269 111.674 4.76204 111.525 4.76204H107.441C107.292 4.76204 107.148 4.82138 107.043 4.92701C106.937 5.03264 106.878 5.17591 106.878 5.32529Z" fill="#027A9D"/>
<path d="M122.79 5.32529V19.6883C122.79 19.8377 122.731 19.981 122.625 20.0866C122.519 20.1922 122.376 20.2516 122.227 20.2516H118.425C118.275 20.2516 118.132 20.1922 118.026 20.0866C117.921 19.981 117.861 19.8377 117.861 19.6883V5.32529C117.861 5.17591 117.802 5.03264 117.696 4.92701C117.591 4.82138 117.448 4.76204 117.298 4.76204H114.341C114.192 4.76204 114.048 4.70269 113.943 4.59706C113.837 4.49142 113.778 4.34817 113.778 4.19878V0.819238C113.778 0.669853 113.837 0.526589 113.943 0.420958C114.048 0.315327 114.192 0.255981 114.341 0.255981H127.437C127.586 0.255981 127.729 0.315327 127.835 0.420958C127.941 0.526589 128 0.669853 128 0.819238V4.19878C128 4.34817 127.941 4.49142 127.835 4.59706C127.729 4.70269 127.586 4.76204 127.437 4.76204H123.353C123.204 4.76204 123.06 4.82138 122.955 4.92701C122.849 5.03264 122.79 5.17591 122.79 5.32529Z" fill="#027A9D"/>
<path d="M9.0121 5.32529V19.6883C9.0121 19.8377 8.95276 19.981 8.84713 20.0866C8.74149 20.1922 8.59823 20.2516 8.44884 20.2516H4.64686C4.49748 20.2516 4.35421 20.1922 4.24858 20.0866C4.14295 19.981 4.08361 19.8377 4.08361 19.6883V5.32529C4.08361 5.17591 4.02426 5.03264 3.91863 4.92701C3.813 4.82138 3.66974 4.76204 3.52035 4.76204H0.563256C0.413871 4.76204 0.270602 4.70269 0.164971 4.59706C0.0593396 4.49142 0 4.34817 0 4.19878V0.819238C0 0.669853 0.0593396 0.526589 0.164971 0.420958C0.270602 0.315327 0.413871 0.255981 0.563256 0.255981H13.659C13.8084 0.255981 13.9516 0.315327 14.0572 0.420958C14.1629 0.526589 14.2222 0.669853 14.2222 0.819238V4.19878C14.2222 4.34817 14.1629 4.49142 14.0572 4.59706C13.9516 4.70269 13.8084 4.76204 13.659 4.76204H9.57536C9.42597 4.76204 9.2827 4.82138 9.17707 4.92701C9.07144 5.03264 9.0121 5.17591 9.0121 5.32529Z" fill="#027A9D"/>
<path d="M30.705 20.2516H26.4505C26.3661 20.2514 26.2827 20.2323 26.2067 20.1955C26.1306 20.1588 26.0638 20.1055 26.0112 20.0394L22.0834 15.1147C22.0105 15.0238 21.9111 14.9578 21.7991 14.9257C21.6871 14.8936 21.5679 14.897 21.4579 14.9356C21.3479 14.9741 21.2526 15.0458 21.185 15.1407C21.1175 15.2357 21.0811 15.3492 21.0808 15.4658V19.6883C21.0808 19.8377 21.0214 19.981 20.9158 20.0866C20.8102 20.1922 20.6669 20.2516 20.5175 20.2516H16.7099C16.5605 20.2516 16.4173 20.1922 16.3116 20.0866C16.206 19.981 16.1467 19.8377 16.1467 19.6883V0.819238C16.1467 0.669853 16.206 0.526589 16.3116 0.420958C16.4173 0.315327 16.5605 0.255981 16.7099 0.255981H23.3282C25.2195 0.255981 26.7766 0.79796 27.9995 1.88192C29.1059 2.86753 29.8359 4.20672 30.0647 5.67075C30.3328 7.11829 30.1356 8.61355 29.5015 9.94211C28.9248 11.1676 27.9388 12.1536 26.7134 12.7302C26.6373 12.7676 26.5706 12.8217 26.5183 12.8885C26.4661 12.9553 26.4295 13.033 26.4115 13.1158C26.3934 13.1987 26.3943 13.2845 26.4141 13.367C26.4338 13.4494 26.472 13.5263 26.5256 13.592L31.1443 19.3429C31.2087 19.4257 31.2486 19.525 31.2596 19.6293C31.2706 19.7337 31.2522 19.839 31.2066 19.9335C31.1609 20.028 31.0897 20.1078 31.0011 20.164C30.9125 20.2202 30.8099 20.2506 30.705 20.2516ZM21.0733 8.70483C21.0733 8.85422 21.1326 8.99748 21.2383 9.10311C21.3439 9.20874 21.4872 9.26809 21.6365 9.26809H23.3263C23.6116 9.27871 23.8952 9.22004 24.1529 9.09709C24.4105 8.97414 24.6346 8.79059 24.8058 8.56214C25.1401 8.11719 25.3124 7.57133 25.294 7.01506C25.31 6.45913 25.138 5.91403 24.8058 5.46798C24.6346 5.23953 24.4105 5.05597 24.1529 4.93302C23.8952 4.81008 23.6116 4.75142 23.3263 4.76204H21.6365C21.4872 4.76204 21.3439 4.82138 21.2383 4.92701C21.1326 5.03264 21.0733 5.17591 21.0733 5.32529V8.70483Z" fill="#027A9D"/>
<path d="M45.3969 19.8818L44.9538 18.8961C44.9095 18.7966 44.8373 18.7121 44.746 18.6528C44.6547 18.5935 44.5482 18.5619 44.4393 18.5619H39.1203C39.011 18.5622 38.9042 18.5944 38.8129 18.6544C38.7215 18.7144 38.6496 18.7997 38.6059 18.8999L38.1741 19.878C38.126 19.9783 38.0539 20.0651 37.9641 20.1306C37.8744 20.1961 37.7697 20.2384 37.6596 20.2535H33.5478C33.4527 20.2465 33.3606 20.2171 33.2791 20.1675C33.1976 20.118 33.129 20.0499 33.079 19.9687C33.0289 19.8875 32.9989 19.7956 32.9913 19.7005C32.9837 19.6054 32.9988 19.5099 33.0353 19.4218L41.2663 1.20985C41.3109 1.11098 41.3831 1.02707 41.4741 0.968215C41.5652 0.909358 41.6714 0.878052 41.7798 0.878052C41.8883 0.878052 41.9944 0.909358 42.0855 0.968215C42.1766 1.02707 42.2488 1.11098 42.2933 1.20985L50.5244 19.4218C50.5609 19.5099 50.576 19.6054 50.5684 19.7005C50.5608 19.7956 50.5307 19.8875 50.4807 19.9687C50.4306 20.0499 50.3621 20.118 50.2805 20.1675C50.199 20.2171 50.1069 20.2465 50.0118 20.2535H45.9094C45.8001 20.2383 45.6962 20.1964 45.6068 20.1316C45.5174 20.0668 45.4453 19.981 45.3969 19.8818ZM43.2227 13.9714L42.2952 11.846C42.2514 11.7455 42.1792 11.66 42.0875 11.5999C41.9958 11.5398 41.8885 11.5079 41.7789 11.5079C41.6693 11.5079 41.562 11.5398 41.4703 11.5999C41.3786 11.66 41.3064 11.7455 41.2626 11.846L40.3426 13.9714C40.3052 14.0571 40.2897 14.1508 40.2976 14.244C40.3054 14.3372 40.3364 14.4269 40.3876 14.5052C40.4388 14.5835 40.5087 14.6477 40.591 14.6922C40.6733 14.7367 40.7654 14.7599 40.8589 14.7599H42.7139C42.8066 14.7584 42.8976 14.734 42.9786 14.6889C43.0596 14.6438 43.1283 14.5793 43.1784 14.5013C43.2286 14.4233 43.2587 14.3341 43.2661 14.2417C43.2735 14.1492 43.2579 14.0564 43.2208 13.9714H43.2227Z" fill="#027A9D"/>
<path d="M63.7307 20.4338C61.8095 20.6562 59.8639 20.3572 58.0982 19.5683C56.3269 18.8201 54.8055 17.5827 53.7123 16.001C52.5565 14.3044 51.9384 12.2992 51.9384 10.2464C51.9384 8.19355 52.5565 6.18832 53.7123 4.49177C54.8095 2.91369 56.3297 1.67721 58.0982 0.924472C59.8663 0.144 61.8108 -0.150266 63.7307 0.0720756C65.5416 0.27087 67.2671 0.947334 68.7306 2.03221C68.7953 2.08106 68.8487 2.14332 68.8872 2.21472C68.9256 2.28612 68.9482 2.36498 68.9534 2.44591C68.9586 2.52685 68.9462 2.60794 68.9171 2.68366C68.8881 2.75937 68.843 2.82791 68.785 2.8846L66.2241 5.39298C66.1295 5.48597 66.0051 5.5426 65.8729 5.5529C65.7407 5.56321 65.6091 5.52652 65.5012 5.4493C64.7471 4.90985 63.8607 4.58538 62.9365 4.51054C61.9342 4.41291 60.9252 4.6086 60.032 5.07379C59.115 5.53274 58.3435 6.23734 57.8034 7.10903C57.2278 8.056 56.9234 9.14289 56.9234 10.2511C56.9234 11.3592 57.2278 12.4461 57.8034 13.3931C58.3486 14.2605 59.1188 14.9639 60.032 15.4283C60.9224 15.8982 61.9302 16.0991 62.9328 16.0066C63.857 15.9319 64.7435 15.6075 65.4975 15.0678C65.6051 14.9884 65.7376 14.9499 65.871 14.9591C66.0045 14.9684 66.1303 15.0249 66.2259 15.1185L68.7869 17.6269C68.8449 17.6836 68.89 17.7521 68.919 17.8279C68.9481 17.9036 68.9604 17.9847 68.9553 18.0656C68.9501 18.1465 68.9275 18.2254 68.8891 18.2968C68.8506 18.3682 68.7972 18.4304 68.7324 18.4793C67.2679 19.5626 65.5417 20.2372 63.7307 20.4338Z" fill="#027A9D"/>
<path d="M75.1478 20.2518H71.3458C71.1964 20.2518 71.0531 20.1924 70.9475 20.0868C70.8419 19.9811 70.7825 19.8379 70.7825 19.6885V0.819407C70.7825 0.670022 70.8419 0.526758 70.9475 0.421127C71.0531 0.315496 71.1964 0.256151 71.3458 0.256151H75.1478C75.2972 0.256151 75.4404 0.315496 75.5461 0.421127C75.6517 0.526758 75.711 0.670022 75.711 0.819407V7.44518C75.7114 7.56246 75.7483 7.6767 75.8167 7.77196C75.8852 7.86722 75.9816 7.93875 76.0926 7.97658C76.2036 8.01441 76.3236 8.01664 76.436 7.98297C76.5483 7.94931 76.6474 7.88142 76.7193 7.78877L82.3668 0.466432C82.4193 0.39827 82.4867 0.343035 82.5638 0.304957C82.641 0.266879 82.7258 0.246972 82.8118 0.246766H87.4361C87.5422 0.24662 87.6462 0.276434 87.7361 0.332775C87.826 0.389116 87.8981 0.469691 87.9442 0.56523C87.9903 0.66077 88.0085 0.767388 87.9967 0.872809C87.9848 0.978229 87.9435 1.07817 87.8774 1.16112L81.1183 9.65689C81.0383 9.7568 80.9947 9.88096 80.9947 10.0089C80.9947 10.1369 81.0383 10.2611 81.1183 10.361L88.3467 19.343C88.4133 19.4258 88.4551 19.5258 88.4673 19.6313C88.4795 19.7369 88.4616 19.8437 88.4157 19.9395C88.3697 20.0354 88.2976 20.1162 88.2077 20.1728C88.1178 20.2294 88.0137 20.2593 87.9074 20.2593H83.2793C83.1939 20.2592 83.1096 20.2397 83.0329 20.2023C82.9561 20.1649 82.8889 20.1106 82.8362 20.0433L76.7174 12.2085C76.6451 12.1163 76.5458 12.049 76.4335 12.0159C76.3211 11.9828 76.2012 11.9855 76.0905 12.0238C75.9798 12.062 75.8837 12.1338 75.8157 12.2291C75.7477 12.3245 75.7111 12.4387 75.711 12.5558V19.681C75.712 19.7556 75.6982 19.8296 75.6703 19.8988C75.6425 19.968 75.6011 20.031 75.5487 20.0841C75.4963 20.1372 75.4339 20.1794 75.3651 20.2082C75.2962 20.2369 75.2224 20.2518 75.1478 20.2518Z" fill="#027A9D"/>
<rect x="89.9332" y="0.187744" width="6.38357" height="6.38357" rx="3.19179" fill="#F08319"/>
</svg>
